<svg xmlns="http://www.w3.org/2000/svg" xmlns:xlink="http://www.w3.org/1999/xlink" width="200" height="200" viewBox="0 0 200 200" fill="none"><rect x="0" y="0" width="0" height="0" fill="rgba(249, 249, 249, 1)" /><defs><rect id="path_0" x="0" y="0" width="200" height="200" /><linearGradient id="linear_0" x1="0%" y1="50%" x2="100%" y2="50%" gradientUnits="objectBoundingBox"><stop offset="0" stop-color="#667EEA" stop-opacity="1" /><stop offset="1" stop-color="#764BA2" stop-opacity="1" /></linearGradient><linearGradient id="linear_1" x1="50%" y1="100%" x2="51%" y2="0%" gradientUnits="objectBoundingBox"><stop offset="0" stop-color="#BDC2E8" stop-opacity="1" /><stop offset="0.01" stop-color="#BDC2E8" stop-opacity="1" /><stop offset="1" stop-color="#E6DEE9" stop-opacity="1" /></linearGradient></defs><g opacity="1" transform="translate(0 0)  rotate(0 100 100)"><rect fill="#FFFFFF" opacity="0" transform="translate(0 0)  rotate(0 100 100)" x="0" y="0" width="200" height="200" /><mask id="bg-mask" fill="white"><use xlink:href="#path_0"></use></mask><g mask="url(#bg-mask)" ><path id="拼合图形" fill-rule="evenodd" fill="url(#linear_0)" transform="translate(22 59)  rotate(0 78 41.5)" opacity="1" d="M154.28,83C154.63,83 154.96,82.81 155.14,82.5C155.32,82.2 155.32,81.82 155.15,81.51L109.83,1.54C109.65,1.23 109.32,1.03 108.96,1.03C108.6,1.03 108.27,1.23 108.09,1.54L78.87,53.1C78.69,53.41 78.36,53.61 78,53.61C77.64,53.61 77.31,53.41 77.13,53.1L47.91,1.54C47.73,1.23 47.4,1.03 47.04,1.03C46.68,1.03 46.35,1.23 46.17,1.54L0.85,81.51C0.68,81.82 0.68,82.2 0.86,82.5C1.04,82.81 1.37,83 1.72,83Z " /><path id="拼合图形" fill-rule="evenodd" fill="url(#linear_1)" transform="translate(37 76)  rotate(0 62.5 29)" opacity="1" d="M121.64,58C122.35,58 123,57.63 123.36,57.02C123.72,56.41 123.73,55.66 123.39,55.04L95.23,3.23C94.88,2.59 94.21,2.19 93.48,2.19C92.74,2.19 92.07,2.59 91.72,3.23L64.26,53.75C63.91,54.4 63.24,54.8 62.5,54.8C61.76,54.8 61.09,54.4 60.74,53.75L33.28,3.23C32.93,2.59 32.26,2.19 31.53,2.19C30.79,2.19 30.12,2.59 29.77,3.23L1.61,55.04C1.27,55.66 1.28,56.41 1.64,57.02C2,57.63 2.65,58 3.36,58Z " /><path id="圆形 1" fill-rule="evenodd" style="fill:#FFFFFF" transform="translate(57 104)  rotate(0 12 11)" opacity="0" d="M12,0C5.37,0 0,4.92 0,11C0,17.08 5.37,22 12,22C18.63,22 24,17.08 24,11C24,4.92 18.63,0 12,0Z " /><path id="圆形 1" fill-rule="evenodd" style="fill:#FFFFFF" transform="translate(120 104)  rotate(0 12 11)" opacity="0" d="M12,0C5.37,0 0,4.92 0,11C0,17.08 5.37,22 12,22C18.63,22 24,17.08 24,11C24,4.92 18.63,0 12,0Z " /><path id="圆形 2" fill-rule="evenodd" style="fill:#000000" transform="translate(69 109)  rotate(0 4.5 6.5)" opacity="1" d="M4.5,0C2.01,0 0,2.91 0,6.5C0,10.09 2.01,13 4.5,13C6.99,13 9,10.09 9,6.5C9,2.91 6.99,0 4.5,0Z " /><path id="圆形 2" fill-rule="evenodd" style="fill:#000000" transform="translate(132 109)  rotate(0 4.5 6.5)" opacity="1" d="M4.5,0C2.01,0 0,2.91 0,6.5C0,10.09 2.01,13 4.5,13C6.99,13 9,10.09 9,6.5C9,2.91 6.99,0 4.5,0Z " /><path  id="直线 1" style="stroke:#FA5C5C; stroke-width:1; stroke-opacity:1; stroke-dasharray:0 0" transform="translate(132 126)  rotate(0 3.3799041232749367 4.459887076130583)" d="M0,0L6.76,8.92 " /><path  id="直线 1" style="stroke:#FA5C5C; stroke-width:1; stroke-opacity:1; stroke-dasharray:0 0" transform="translate(60.48547759239466 126)  rotate(0 3.3799041232749367 4.459887076130583)" d="M6.76,0L0,8.92 " /><path  id="直线 1" style="stroke:#FA5C5C; stroke-width:1; stroke-opacity:1; stroke-dasharray:0 0" transform="translate(52.74273879619733 126)  rotate(0 3.3799041232749367 4.459887076130583)" d="M6.76,0L0,8.92 " /><path  id="直线 1" style="stroke:#FA5C5C; stroke-width:1; stroke-opacity:1; stroke-dasharray:0 0" transform="translate(45 126)  rotate(0 3.3799041232749403 4.459887076130583)" d="M6.76,0L0,8.92 " /><path  id="直线 1" style="stroke:#FA5C5C; stroke-width:1; stroke-opacity:1; stroke-dasharray:0 0" transform="translate(139.74273879619733 126)  rotate(0 3.3799041232749367 4.459887076130583)" d="M0,0L6.76,8.92 " /><path  id="直线 1" style="stroke:#FA5C5C; stroke-width:1; stroke-opacity:1; stroke-dasharray:0 0" transform="translate(147.48547759239466 126)  rotate(0 3.3799041232749403 4.459887076130583)" d="M0,0L6.76,8.92 " /></g></g></svg>